<svg xmlns="http://www.w3.org/2000/svg" viewBox="0 0 520 520" role="img" aria-label="Poker-Chip mit Spielkarten-Symbolen">
  <defs>
    <radialGradient id="shine" cx="34%" cy="26%" r="68%">
      <stop offset="0" stop-color="#fff4cf"/>
      <stop offset="0.38" stop-color="#d82035"/>
      <stop offset="1" stop-color="#871220"/>
    </radialGradient>
    <filter id="shadow" x="-20%" y="-20%" width="140%" height="140%">
      <feDropShadow dx="0" dy="18" stdDeviation="18" flood-color="#000" flood-opacity=".36"/>
    </filter>
  </defs>
  <circle cx="260" cy="260" r="230" fill="#101014" filter="url(#shadow)"/>
  <circle cx="260" cy="260" r="214" fill="url(#shine)"/>
  <g fill="#fff4cf">
    <path d="M248 31h24l13 86h-50z"/>
    <path d="M248 403h24l13 86h-50z"/>
    <path d="M489 248v24l-86 13v-50z"/>
    <path d="M31 248v24l86 13v-50z"/>
    <path d="m418 85 17 17-52 70-35-35z"/>
    <path d="m85 418 17 17 70-52-35-35z"/>
    <path d="m435 418-17 17-70-52 35-35z"/>
    <path d="m102 85-17 17 52 70 35-35z"/>
  </g>
  <circle cx="260" cy="260" r="148" fill="#fff4cf"/>
  <circle cx="260" cy="260" r="124" fill="#0b5a3b"/>
  <circle cx="260" cy="260" r="86" fill="#101014"/>
  <g font-family="Georgia, serif" font-size="70" font-weight="700" text-anchor="middle" dominant-baseline="middle">
    <text x="260" y="178" fill="#fff4cf">♠</text>
    <text x="342" y="267" fill="#ec2f43">♥</text>
    <text x="260" y="350" fill="#fff4cf">♣</text>
    <text x="178" y="267" fill="#ec2f43">♦</text>
  </g>
  <text x="260" y="271" fill="#f6c85f" font-family="Inter, Arial, sans-serif" font-size="38" font-weight="900" text-anchor="middle">2026</text>
</svg>
